<svg width="25" height="25" viewBox="0 0 25 25" fill="none" xmlns="http://www.w3.org/2000/svg">
<path d="M24.6223 12.409C24.6223 17.5368 20.4656 21.693 15.3371 21.693H9.28577V3.125H15.3371C20.4656 3.125 24.6223 7.28266 24.6223 12.409Z" fill="url(#paint0_linear_623_142112)"/>
<path d="M12.9446 19.1879C13.0282 20.0513 13.299 20.8497 13.7137 21.5506C13.74 21.5986 13.7694 21.645 13.7988 21.693H9.28577V12.9243H18.1025C14.9471 13.2306 12.6382 16.0344 12.9446 19.1879Z" fill="#6400E6"/>
<path d="M18.5704 12.4114C18.5704 12.6786 18.3671 12.9003 18.1012 12.927C15.1566 13.2224 12.6178 14.8935 11.136 17.2878C10.4155 18.4537 9.94446 19.7921 9.80133 21.2258C9.7748 21.4915 9.55301 21.6946 9.28591 21.6946C9.01871 21.6946 8.79702 21.4914 8.77041 21.2256C8.33208 16.8477 4.8489 13.3651 0.469152 12.9269C0.203269 12.9003 0 12.6786 0 12.4114C0 12.1443 0.203282 11.9225 0.469175 11.8959C4.85033 11.4579 8.3323 7.97634 8.77044 3.59576C8.79703 3.3299 9.01873 3.12665 9.28595 3.12665C9.55316 3.12665 9.77492 3.3299 9.80152 3.59575C10.2397 7.97497 13.7215 11.4577 18.1013 11.8959C18.3671 11.9225 18.5704 12.1442 18.5704 12.4114Z" fill="url(#paint1_linear_623_142112)"/>
<defs>
<linearGradient id="paint0_linear_623_142112" x1="16.954" y1="21.693" x2="16.954" y2="3.125" gradientUnits="userSpaceOnUse">
<stop stop-color="#6400E6"/>
<stop offset="0.00798" stop-color="#6501E6"/>
<stop offset="0.21029" stop-color="#8A25EF"/>
<stop offset="0.41265" stop-color="#A741F6"/>
<stop offset="0.61287" stop-color="#BC55FB"/>
<stop offset="0.80988" stop-color="#C861FE"/>
<stop offset="1" stop-color="#CD66FF"/>
</linearGradient>
<linearGradient id="paint1_linear_623_142112" x1="4.53565" y1="17.1604" x2="14.0343" y2="7.66047" gradientUnits="userSpaceOnUse">
<stop stop-color="#CD66FF"/>
<stop offset="1" stop-color="#FFB3FF"/>
</linearGradient>
</defs>
</svg>
